<svg width="24" height="25" viewBox="0 0 24 25" fill="none" xmlns="http://www.w3.org/2000/svg">
<path fill-rule="evenodd" clip-rule="evenodd" d="M21.8421 1.15787C21.9323 1.24786 22.0039 1.35477 22.0528 1.47246C22.1016 1.59015 22.1267 1.71633 22.1267 1.84375C22.1267 1.97117 22.1016 2.09735 22.0528 2.21504C22.0039 2.33273 21.9323 2.43964 21.8421 2.52963L0.529628 23.8421C0.347723 24.024 0.101006 24.1262 -0.156247 24.1262C-0.4135 24.1262 -0.660217 24.024 -0.842122 23.8421C-1.02403 23.6602 -1.12622 23.4135 -1.12622 23.1562C-1.12622 22.899 -1.02403 22.6523 -0.842122 22.4704L20.4704 1.15787C20.5604 1.06766 20.6673 0.996082 20.785 0.947244C20.9027 0.898407 21.0288 0.873268 21.1563 0.873268C21.2837 0.873268 21.4098 0.898407 21.5275 0.947244C21.6452 0.996082 21.7521 1.06766 21.8421 1.15787Z" fill="white"/>
<path fill-rule="evenodd" clip-rule="evenodd" d="M-0.842102 1.15787C-0.932319 1.24786 -1.0039 1.35477 -1.05273 1.47246C-1.10157 1.59015 -1.12671 1.71633 -1.12671 1.84375C-1.12671 1.97117 -1.10157 2.09735 -1.05273 2.21504C-1.0039 2.33273 -0.932319 2.43964 -0.842102 2.52963L20.4704 23.8421C20.6523 24.024 20.899 24.1262 21.1563 24.1262C21.4135 24.1262 21.6602 24.024 21.8421 23.8421C22.0241 23.6602 22.1262 23.4135 22.1262 23.1562C22.1262 22.899 22.0241 22.6523 21.8421 22.4704L0.529648 1.15787C0.439659 1.06766 0.332757 0.996082 0.215063 0.947244C0.0973694 0.898407 -0.0288031 0.873268 -0.156227 0.873268C-0.283651 0.873268 -0.409824 0.898407 -0.527517 0.947244C-0.645211 0.996082 -0.752114 1.06766 -0.842102 1.15787Z" fill="white"/>
</svg>
